<svg id="Layer_1" data-name="Layer 1" xmlns="http://www.w3.org/2000/svg" xmlns:xlink="http://www.w3.org/1999/xlink" viewBox="0 0 144.03 144.03"><defs><style>.cls-1{fill:url(#linear-gradient);}.cls-2{fill:#fff;}</style><linearGradient id="linear-gradient" x1="71.09" y1="150.99" x2="72.63" y2="19.29" gradientUnits="userSpaceOnUse"><stop offset="0" stop-color="#d49997"/><stop offset="1" stop-color="#4374a1"/></linearGradient></defs><title>cam</title><circle id="button_cams" class="cls-1" cx="72.01" cy="72.01" r="72.01"/><path class="cls-2" d="M179.2,179.34H157a.92.92,0,0,0-.92.92v2.45a.92.92,0,0,0,.92.92h18.88v18.88a.92.92,0,0,0,.92.92h2.45a.92.92,0,0,0,.92-.92V180.26A.92.92,0,0,0,179.2,179.34Z" transform="translate(-71.96 -143.67)"/><path class="cls-2" d="M180.12,250.09V227.84a.92.92,0,0,0-.92-.92h-2.45a.92.92,0,0,0-.92.92v18.88H157a.92.92,0,0,0-.92.91v2.46a.92.92,0,0,0,.92.92H179.2A.92.92,0,0,0,180.12,250.09Z" transform="translate(-71.96 -143.67)"/><path class="cls-2" d="M109.07,251h22.26a.92.92,0,0,0,.91-.92v-2.46a.91.91,0,0,0-.91-.91H112.45V227.84a.92.92,0,0,0-.92-.92h-2.46a.92.92,0,0,0-.91.92v22.25A.92.92,0,0,0,109.07,251Z" transform="translate(-71.96 -143.67)"/><path class="cls-2" d="M108.16,180.26v22.25a.92.92,0,0,0,.91.92h2.46a.92.92,0,0,0,.92-.92V183.63h18.88a.92.92,0,0,0,.91-.92v-2.45a.92.92,0,0,0-.91-.92H109.07A.92.92,0,0,0,108.16,180.26Z" transform="translate(-71.96 -143.67)"/><path class="cls-2" d="M144,194.84a20.24,20.24,0,1,0,20.24,20.23A20.24,20.24,0,0,0,144,194.84Zm0,35.62a15.39,15.39,0,1,1,15.39-15.39A15.39,15.39,0,0,1,144,230.46Z" transform="translate(-71.96 -143.67)"/><path class="cls-2" d="M144,185.32a29.76,29.76,0,1,0,29.75,29.75A29.75,29.75,0,0,0,144,185.32Zm0,54.75a25,25,0,1,1,25-25A25,25,0,0,1,144,240.07Z" transform="translate(-71.96 -143.67)"/><path class="cls-2" d="M153.6,217.76h0a2.68,2.68,0,0,1-2.68-2.68,6.94,6.94,0,0,0-7-6.89,2.68,2.68,0,0,1,0-5.36h0a12.31,12.31,0,0,1,12.32,12.26A2.68,2.68,0,0,1,153.6,217.76Z" transform="translate(-71.96 -143.67)"/></svg>