<svg id="Layer_1" data-name="Layer 1" xmlns="http://www.w3.org/2000/svg" xmlns:xlink="http://www.w3.org/1999/xlink" viewBox="0 0 144.03 144.03"><defs><style>.cls-1{fill:url(#linear-gradient);}.cls-2{fill:#fff;}</style><linearGradient id="linear-gradient" x1="71.09" y1="150.99" x2="72.63" y2="19.29" gradientUnits="userSpaceOnUse"><stop offset="0" stop-color="#d49997"/><stop offset="1" stop-color="#4374a1"/></linearGradient></defs><title>doors</title><circle id="button_doors" class="cls-1" cx="72.01" cy="72.01" r="72.01"/><path class="cls-2" d="M169.6,174.28l-33.28-5.77a2.7,2.7,0,0,0-3.17,2.66v1.22H119.3a2.27,2.27,0,0,0-2.27,2.27v75.1a2.28,2.28,0,0,0,4.55,0V176.94h11.57v76.54a2.71,2.71,0,0,0,3.18,2.66l33.29-6a2.69,2.69,0,0,0,2.22-2.66V176.94A2.69,2.69,0,0,0,169.6,174.28ZM141.48,218.5a2.82,2.82,0,1,1,2.59-2.81A2.71,2.71,0,0,1,141.48,218.5Z" transform="translate(-71.96 -143.67)"/></svg>