<svg id="Layer_1" data-name="Layer 1" xmlns="http://www.w3.org/2000/svg" xmlns:xlink="http://www.w3.org/1999/xlink" viewBox="0 0 144.03 144.03"><defs><style>.cls-1{fill:url(#linear-gradient);}.cls-2{fill:#fff;}</style><linearGradient id="linear-gradient" x1="71.09" y1="150.99" x2="72.63" y2="19.29" gradientUnits="userSpaceOnUse"><stop offset="0" stop-color="#d49997"/><stop offset="1" stop-color="#4374a1"/></linearGradient></defs><title>lock</title><circle id="button_security" class="cls-1" cx="72.01" cy="72.01" r="72.01"/><path class="cls-2" d="M167.58,205.11h-2.53v-15.7a14.28,14.28,0,0,0-14.24-14.24H138.74a14.28,14.28,0,0,0-14.24,14.24v15.7h-2.71a6.63,6.63,0,0,0-6.61,6.61V242.6a6.63,6.63,0,0,0,6.61,6.61h45.79a6.64,6.64,0,0,0,6.61-6.61V211.72A6.64,6.64,0,0,0,167.58,205.11Zm-33.5-.18v-14.4a6,6,0,0,1,6-6h9.22a6,6,0,0,1,6,6v14.58H134.08Zm13.78,20.88v11.83a2.29,2.29,0,0,1-2.28,2.28h-2a2.29,2.29,0,0,1-2.29-2.28V226a6,6,0,1,1,6.56-.22Z" transform="translate(-71.96 -143.67)"/></svg>