<svg id="Layer_1" data-name="Layer 1" xmlns="http://www.w3.org/2000/svg" viewBox="0 0 171.07 205.13"><defs><style>.cls-1{fill:#fff;}</style></defs><title>logo-icon</title><path class="cls-1" d="M85.52,27.59c28.9,0,52.91,29.24,57,60.61A4.29,4.29,0,0,0,145,91.6L162.63,100l6.46-4.32C166.32,43.07,129.92,1.5,85.46,1.5S4.85,42.76,1.85,95l6.46,4.25,17.84-8.9A4.34,4.34,0,0,0,28.64,87C32.94,56,56.84,27.59,85.52,27.59Z" transform="translate(-0.01 -1.5)"/><path class="cls-1" d="M167.82,117.07l-66-33.64a36.32,36.32,0,0,0-33.29-.15L3.28,115.85A6.05,6.05,0,0,0,0,121.3v79.31a5.88,5.88,0,0,0,5.69,6H65.78a5.88,5.88,0,0,0,5.69-6V162.78c-6.52-3.68-11.55-9.41-14.93-13a5.6,5.6,0,0,1-.12-7.65c16.51-16.91,29.84-15.43,29.84-15.43,16.21.58,25.09,11,29.28,17a5.48,5.48,0,0,1-.13,6.51A40,40,0,0,1,99.7,162.82v37.81a5.88,5.88,0,0,0,5.69,6h60a5.88,5.88,0,0,0,5.69-6v-78.1A6.07,6.07,0,0,0,167.82,117.07Z" transform="translate(-0.01 -1.5)"/><path class="cls-1" d="M85.21,133.2a14.44,14.44,0,0,0-13.63,13.87,14.26,14.26,0,0,0,5,11.34,1.37,1.37,0,0,0,1.92-.17,1.41,1.41,0,0,0,.31-.93,7.64,7.64,0,0,1,.17-1.58,7.13,7.13,0,0,1,14.1,1.54h0a1.4,1.4,0,0,0,1.43,1.37,1.42,1.42,0,0,0,.92-.37A14.33,14.33,0,0,0,85.24,133.2Z" transform="translate(-0.01 -1.5)"/></svg>