<svg id="Layer_1" data-name="Layer 1" xmlns="http://www.w3.org/2000/svg" viewBox="0 0 1199.5 228.88"><defs><style>.cls-1{font-size:60px;font-family:Rajdhani-Regular, Rajdhani;}.cls-1,.cls-3,.cls-4{fill:#fff;}.cls-2{font-size:70px;font-family:Rajdhani-Medium, Rajdhani;}.cls-3{stroke:#fff;stroke-miterlimit:10;stroke-width:3px;}</style></defs><title>logo</title><text class="cls-1" transform="translate(201.82 130.7)">HouseCom™ <tspan class="cls-2"><tspan x="0" y="73">ThermoSecurity™ System</tspan></tspan></text><path class="cls-3" d="M371.06,423.52c28.9,0,52.91,29.24,57,60.61a4.29,4.29,0,0,0,2.49,3.4l17.62,8.36,6.46-4.32C451.86,439,415.46,397.43,371,397.43c-44.32,0-80.61,41.26-83.61,93.5l6.46,4.25,17.84-8.9a4.34,4.34,0,0,0,2.49-3.36C318.48,451.89,342.38,423.52,371.06,423.52Z" transform="translate(-285.54 -395.93)"/><path class="cls-4" d="M445.1,493l1.74-3.72a1.92,1.92,0,0,1,2.23-1,1.18,1.18,0,0,0,.59,0l3.9-1.12a1,1,0,0,1,1.11.43c.74,1.34,1.66,3.83,1.44,5.35a4.52,4.52,0,0,1-.22.68l-1.66,3.56a2.93,2.93,0,0,1-3.84,1.43l-3.91-1.78A2.86,2.86,0,0,1,445.1,493Z" transform="translate(-285.54 -395.93)"/><path class="cls-4" d="M296.84,492.33l-1.73-3.71a1.93,1.93,0,0,0-2.24-1,1,1,0,0,1-.58,0l-3.9-1.11a1,1,0,0,0-1.11.43c-.75,1.34-1.71,3.67-1.42,5.39a4.56,4.56,0,0,0,.19.63l1.66,3.54a2.92,2.92,0,0,0,3.83,1.43l4.26-2C297.24,495.3,297.51,493.76,296.84,492.33Z" transform="translate(-285.54 -395.93)"/><path class="cls-4" d="M453.36,513l-66-33.64a36.32,36.32,0,0,0-33.29-.15l-65.25,32.57a6.05,6.05,0,0,0-3.27,5.45v79.31a5.87,5.87,0,0,0,5.69,6h60.08a5.87,5.87,0,0,0,5.69-6V558.71c-6.52-3.68-11.55-9.41-14.93-13a5.59,5.59,0,0,1-.12-7.65c16.51-16.91,29.84-15.43,29.84-15.43,16.21.58,25.09,11,29.28,17a5.48,5.48,0,0,1-.13,6.51,40,40,0,0,1-15.71,12.61v37.81a5.87,5.87,0,0,0,5.69,6h60a5.87,5.87,0,0,0,5.69-6v-78.1A6.09,6.09,0,0,0,453.36,513Z" transform="translate(-285.54 -395.93)"/><path class="cls-4" d="M370.75,529.13A14.44,14.44,0,0,0,357.12,543a14.28,14.28,0,0,0,5,11.34,1.36,1.36,0,0,0,2.23-1.1,7.79,7.79,0,0,1,.17-1.58,7.13,7.13,0,0,1,14.1,1.54h0a1.4,1.4,0,0,0,2.35,1,14.33,14.33,0,0,0-10.19-25.07Z" transform="translate(-285.54 -395.93)"/></svg>