<svg id="Layer_1" data-name="Layer 1" xmlns="http://www.w3.org/2000/svg" xmlns:xlink="http://www.w3.org/1999/xlink" viewBox="0 0 144.03 144.03"><defs><style>.cls-1{fill:url(#linear-gradient);}.cls-2{fill:#fff;}</style><linearGradient id="linear-gradient" x1="71.09" y1="150.99" x2="72.63" y2="19.29" gradientUnits="userSpaceOnUse"><stop offset="0" stop-color="#d49997"/><stop offset="1" stop-color="#4374a1"/></linearGradient></defs><title>rooms</title><circle id="button_rooms" class="cls-1" cx="72.01" cy="72.01" r="72.01"/><g id="icon_room"><path class="cls-2" d="M187.54,238.43v-47a2.29,2.29,0,0,0-.31-1.16,2.36,2.36,0,0,0-1.5-1.73l-39.94-14.36a2.37,2.37,0,0,0-2.34-.4l-39.77,15a2.37,2.37,0,0,0-1.51,2.55c0,.05,0,.09,0,.14V239a8.16,8.16,0,0,1,.13,2.29h0a2.35,2.35,0,0,0,.52.81,2.39,2.39,0,0,0,1,.7l40.79,14.67a2.33,2.33,0,0,0,1.87-.12l.07,0,38.83-16a2.37,2.37,0,0,0,2.1-1.56A2.28,2.28,0,0,0,187.54,238.43Zm-42.2,14.25-34.08-12.26,33.86-12.73a2.38,2.38,0,0,0,.67-.4l32.68,11.76Zm37.47-17.1-8.7-3.13V202.31a2.12,2.12,0,0,0-2.12-2.12l-15.66-6.14a2.12,2.12,0,0,0-2.12,2.11v29.13l-7.39-2.66V179.55l36,12.95Zm-11.75-4.44a1.49,1.49,0,0,1,0,.21l-13.77-5,.33-26.2c0-1,.35-1.77,1.15-1.77l10.84,4.85a1.67,1.67,0,0,1,1.47,1.81Zm-29-7.37L106.9,237V192.56l35.18-13.23Z" transform="translate(-71.96 -143.67)"/><path class="cls-2" d="M115.54,204.24l-.34,17.13a2.44,2.44,0,0,0,3.13,1.42l16-6.57a2.43,2.43,0,0,0,1.55-2.66,13.07,13.07,0,0,1-.11-2.26l.11-15.68a2.44,2.44,0,0,0-3.13-1.42L117,200.4a2.44,2.44,0,0,0-1.55,2.66A6.75,6.75,0,0,1,115.54,204.24Zm3.38.7a1.61,1.61,0,0,1,1-1.74l10.3-4a1.58,1.58,0,0,1,2,.93l-.07,10.25a10.48,10.48,0,0,0,.07,1.48,1.58,1.58,0,0,1-1,1.73l-10.44,4.29a1.58,1.58,0,0,1-2-.92l.22-11.19A5.16,5.16,0,0,0,118.92,204.94Z" transform="translate(-71.96 -143.67)"/><line class="cls-2" x1="53.73" y1="56.26" x2="53.82" y2="73.48"/><rect class="cls-2" x="124.34" y="199.93" width="2.78" height="17.22" transform="translate(-73.06 -143) rotate(-0.3)"/><line class="cls-2" x1="61.85" y1="62.51" x2="45.29" y2="67.23"/><rect class="cls-2" x="116.92" y="207.15" width="17.22" height="2.78" transform="translate(-124.37 -101.22) rotate(-15.93)"/><polygon class="cls-2" points="34.93 96.32 72.92 111.5 110.85 95.19 72.92 81.42 34.93 96.32"/></g></svg>