<svg id="Layer_1" data-name="Layer 1" xmlns="http://www.w3.org/2000/svg" xmlns:xlink="http://www.w3.org/1999/xlink" viewBox="0 0 144.03 144.03"><defs><style>.cls-1{fill:url(#linear-gradient);}.cls-2{fill:#231f20;}.cls-3{fill:#fff;}</style><linearGradient id="linear-gradient" x1="71.09" y1="150.99" x2="72.63" y2="19.29" gradientUnits="userSpaceOnUse"><stop offset="0" stop-color="#d49997"/><stop offset="1" stop-color="#4374a1"/></linearGradient></defs><title>Untitled-2</title><circle id="button_temp" class="cls-1" cx="72.01" cy="72.01" r="72.01"/><g id="icon_temp"><path class="cls-2" d="M131.3,172.51" transform="translate(-71.96 -143.67)"/><path class="cls-3" d="M151.23,229a8.73,8.73,0,0,0,.27-2.12V185.47c0-5.31-4.82-9.65-10.71-9.65h0c-5.88,0-10.7,4.34-10.7,9.65V226.9a8.73,8.73,0,0,0,.27,2.12,14.29,14.29,0,0,0-6,11.45c0,8.18,7.35,14.81,16.42,14.81s16.43-6.63,16.43-14.81A14.29,14.29,0,0,0,151.23,229Zm-10.44,19.45a8.65,8.65,0,0,1-3.31-16.64V201.78a2.68,2.68,0,0,1,2.68-2.68h1.39a2.69,2.69,0,0,1,2.68,2.68v30.11a8.65,8.65,0,0,1-3.44,16.58Z" transform="translate(-71.96 -143.67)"/><rect class="cls-3" x="83.29" y="41.8" width="12.98" height="3.98" rx="1.9"/><rect class="cls-3" x="83.29" y="53.44" width="12.98" height="3.98" rx="1.9"/><rect class="cls-3" x="83.29" y="65.06" width="12.98" height="3.98" rx="1.9"/><rect class="cls-3" x="83.29" y="76.69" width="12.98" height="3.98" rx="1.9"/></g></svg>