<svg id="Layer_1" data-name="Layer 1" xmlns="http://www.w3.org/2000/svg" xmlns:xlink="http://www.w3.org/1999/xlink" viewBox="0 0 144.03 144.03"><defs><style>.cls-1{fill:url(#linear-gradient);}.cls-2{fill:#fff;}</style><linearGradient id="linear-gradient" x1="71.09" y1="150.99" x2="72.63" y2="19.29" gradientUnits="userSpaceOnUse"><stop offset="0" stop-color="#d49997"/><stop offset="1" stop-color="#4374a1"/></linearGradient></defs><title>weather</title><circle id="button_weather" class="cls-1" cx="72.01" cy="72.01" r="72.01"/><rect class="cls-2" x="145.56" y="192.44" width="12.32" height="4.58" rx="2.19" transform="translate(-163.96 17.84) rotate(-45)"/><rect class="cls-2" x="106.13" y="231.87" width="12.32" height="4.58" rx="2.19" transform="translate(-203.39 1.51) rotate(-45)"/><rect class="cls-2" x="29.27" y="65.1" width="12.32" height="4.58" rx="2.19"/><rect class="cls-2" x="125.96" y="185.54" width="12.32" height="4.58" rx="2.19" transform="translate(-126.41 173.47) rotate(-90)"/><rect class="cls-2" x="106.13" y="192.44" width="12.32" height="4.58" rx="2.19" transform="translate(99.89 -168.85) rotate(45)"/><path class="cls-2" d="M184,241a12.69,12.69,0,0,0-12.32-12.8A19.85,19.85,0,0,0,132,230c0,.46,0,.93,0,1.39a10.29,10.29,0,0,0-1.57-.13,11.27,11.27,0,0,0,0,22.53H174l.46-.1C180.16,252.45,184,247.13,184,241Z" transform="translate(-70.7 -146.48)"/><path class="cls-2" d="M139.82,210.26l.11,0a2.6,2.6,0,0,0,1.22-3.57,11.15,11.15,0,0,0-13.83-5.43,10.68,10.68,0,0,0-6.5,6.45,11.6,11.6,0,0,0,5.76,14.69,3.21,3.21,0,0,0,4.42-2A16.75,16.75,0,0,1,139.82,210.26Z" transform="translate(-70.7 -146.48)"/></svg>