<svg id="Layer_1" data-name="Layer 1" xmlns="http://www.w3.org/2000/svg" xmlns:xlink="http://www.w3.org/1999/xlink" viewBox="0 0 144.03 144.03"><defs><style>.cls-1{fill:url(#linear-gradient);}.cls-2{fill:#fff;}</style><linearGradient id="linear-gradient" x1="71.09" y1="150.99" x2="72.63" y2="19.29" gradientUnits="userSpaceOnUse"><stop offset="0" stop-color="#d49997"/><stop offset="1" stop-color="#4374a1"/></linearGradient></defs><title>windows</title><circle id="button_windows" class="cls-1" cx="72.01" cy="72.01" r="72.01"/><g id="icon_window"><path class="cls-2" d="M118.7,244.2h48.38a2,2,0,0,0,2-2V188.52a2,2,0,0,0-2-2H118.7a2,2,0,0,0-2,2v53.71A2,2,0,0,0,118.7,244.2Zm2-26.85h20.24v22.9H120.67Zm24.19,22.9v-22.9H165.1v22.9ZM165.1,213.4H144.86V190.5H165.1Zm-24.19-22.9v22.9H120.67V190.5Z" transform="translate(-71.96 -143.67)"/><path class="cls-2" d="M176.39,176.21h-67a2,2,0,0,0-2,2v74.37a2,2,0,0,0,2,2h67a2,2,0,0,0,2-2V178.19A2,2,0,0,0,176.39,176.21Zm-2,74.38h-63V180.16h63.05Z" transform="translate(-71.96 -143.67)"/></g></svg>